PathFileType	4	(X/Y/Z)	RBDS018static.trc
DataRate	CameraRate	NumFrames	NumMarkers	Units	OrigDataRate	OrigDataStartFrame	OrigNumFrames
150.000000	150.000000	4	48	mm	150.000000	18	150
Frame#	Time	L.Ankle			L.Ankle.Medial			L.ASIS			L.GTR			L.Heel.Bottom			L.Heel.Lateral			L.Heel.Top			L.HF			L.Iliac.Crest			L.Knee			L.Knee.Medial			L.MT1			L.MT2			L.MT5			L.PSIS			L.Shank.Bottom.Lateral			L.Shank.Bottom.Medial			L.Shank.Top.Lateral			L.Shank.Top.Medial			L.Thigh.Bottom.Lateral			L.Thigh.Bottom.Medial			L.Thigh.Top.Lateral			L.Thigh.Top.Medial			L.TT			R.Ankle			R.Ankle.Medial			R.ASIS			R.GTR			R.Heel.Bottom			R.Heel.Lateral			R.Heel.Top			R.HF			R.Iliac.Crest			R.Knee			R.Knee.Medial			R.MT1			R.MT2			R.MT5			R.PSIS			R.Shank.Bottom.Lateral			R.Shank.Bottom.Medial			R.Shank.Top.Lateral			R.Shank.Top.Medial			R.Thigh.Bottom.Lateral			R.Thigh.Bottom.Medial			R.Thigh.Top.Lateral			R.Thigh.Top.Medial			R.TT			
		X1	Y1	Z1	X2	Y2	Z2	X3	Y3	Z3	X4	Y4	Z4	X5	Y5	Z5	X6	Y6	Z6	X7	Y7	Z7	X8	Y8	Z8	X9	Y9	Z9	X10	Y10	Z10	X11	Y11	Z11	X12	Y12	Z12	X13	Y13	Z13	X14	Y14	Z14	X15	Y15	Z15	X16	Y16	Z16	X17	Y17	Z17	X18	Y18	Z18	X19	Y19	Z19	X20	Y20	Z20	X21	Y21	Z21	X22	Y22	Z22	X23	Y23	Z23	X24	Y24	Z24	X25	Y25	Z25	X26	Y26	Z26	X27	Y27	Z27	X28	Y28	Z28	X29	Y29	Z29	X30	Y30	Z30	X31	Y31	Z31	X32	Y32	Z32	X33	Y33	Z33	X34	Y34	Z34	X35	Y35	Z35	X36	Y36	Z36	X37	Y37	Z37	X38	Y38	Z38	X39	Y39	Z39	X40	Y40	Z40	X41	Y41	Z41	X42	Y42	Z42	X43	Y43	Z43	X44	Y44	Z44	X45	Y45	Z45	X46	Y46	Z46	X47	Y47	Z47	X48	Y48	Z48	

19	0.12	711.0316162109375	105.6896362304688	1044.38525390625	738.0350952148438	116.51318359375	1128.113403320313	862.1160888671875	1073.303588867188	1129.25390625	798.4849243164063	970.3817138671875	1049.225952148438	641.0966186523438	42.2567138671875	1087.363647460938	671.851806640625	54.17401123046875	1040.998168945313	650.8359985351563	92.02017974853516	1085.266967773438	733.5239868164063	498.3648376464844	1031.96533203125	785.5264282226563	1140.496948242188	1081.797241210938	747.15673828125	565.0009155273438	1043.036376953125	746.5512084960938	531.3832397460938	1171.166870117188	863.6517333984375	56.30895614624023	1128.306884765625	874.1568603515625	69.35314178466797	1074.67822265625	839.4472045898438	54.01009750366211	1014.8759765625	683.2620849609375	1080.4423828125	1182.677490234375	689.8614501953125	203.0203704833984	1034.418090820313	660.0040893554688	202.0818634033203	1076.2412109375	680.0659790039063	282.8031005859375	1024.516479492188	650.4661865234375	286.1060791015625	1068.754760742188	749.2900390625	675.2728271484375	1033.241943359375	692.841552734375	681.248046875	1079.639892578125	756.3850708007813	784.585205078125	1028.899658203125	702.9603271484375	789.966064453125	1073.994384765625	790.7454223632813	463.7394104003906	1087.179809570313	710.3793334960938	107.144172668457	1414.298950195313	733.2586059570313	123.5184173583984	1330.586547851563	855.3339233398438	1075.535888671875	1363.325561523438	791.759521484375	970.574951171875	1428.95849609375	639.6442260742188	43.10414123535156	1374.381225585938	662.7839965820313	60.0902214050293	1410.415893554688	651.0425415039063	93.02156066894531	1373.350952148438	741.679931640625	490.8982849121094	1438.348388671875	779.771728515625	1142.861206054688	1388.71240234375	743.2023315429688	555.2847900390625	1432.107177734375	742.5215454101563	533.5208129882813	1300.125366210938	861.6791381835938	59.81253814697266	1326.370971679688	875.1773071289063	69.52358245849609	1377.263916015625	838.1705322265625	55.86379623413086	1437.691650390625	680.773193359375	1084.8203125	1291.702880859375	705.7800903320313	211.7675170898438	1436.17626953125	662.5667724609375	214.8699035644531	1400.741577148438	699.2534790039063	292.0148620605469	1449.245361328125	658.315185546875	294.1491088867188	1413.849853515625	749.4010009765625	668.814697265625	1443.681884765625	690.364501953125	675.0098266601563	1400.889892578125	754.4949951171875	779.404541015625	1448.680053710938	699.8587036132813	784.5735473632813	1408.401977539063	795.0665893554688	468.5231018066406	1388.003662109375	
20	0.1266666666666667	711.036376953125	105.6845016479492	1044.377075195313	738.0388793945313	116.514274597168	1128.115966796875	862.0198364257813	1073.309448242188	1129.263916015625	798.4092407226563	970.374755859375	1049.214477539063	641.09326171875	42.25516891479492	1087.367065429688	671.8584594726563	54.17178726196289	1040.999389648438	650.8273315429688	92.01644897460938	1085.261108398438	733.5357666015625	498.3582458496094	1031.942626953125	785.4260864257813	1140.517822265625	1081.803466796875	747.1522216796875	565.0042724609375	1043.039916992188	746.5303344726563	531.3649291992188	1171.161010742188	863.6564331054688	56.31077194213867	1128.326293945313	874.1639404296875	69.35417175292969	1074.689086914063	839.4486694335938	54.01571273803711	1014.880615234375	683.1798095703125	1080.44189453125	1182.683227539063	689.87255859375	203.0187225341797	1034.4169921875	660.0054321289063	202.0671691894531	1076.229370117188	680.0681762695313	282.7953796386719	1024.518676757813	650.4664306640625	286.0953369140625	1068.758056640625	749.2586059570313	675.261474609375	1033.25439453125	692.8179931640625	681.2401733398438	1079.634887695313	756.3384399414063	784.5658569335938	1028.87744140625	702.9165649414063	789.9454345703125	1073.969970703125	790.7575073242188	463.7212829589844	1087.1865234375	710.3898315429688	107.1316146850586	1414.299194335938	733.264404296875	123.5159912109375	1330.59375	855.259033203125	1075.551879882813	1363.31689453125	791.6824951171875	970.5836791992188	1428.9443359375	639.6466674804688	43.10814666748047	1374.3740234375	662.7825317382813	60.09113311767578	1410.419311523438	651.04345703125	93.01397705078125	1373.341064453125	741.6873168945313	490.8980102539063	1438.34423828125	779.7015380859375	1142.868896484375	1388.7060546875	743.1939697265625	555.285888671875	1432.1005859375	742.5093383789063	533.5269775390625	1300.12548828125	861.6884155273438	59.81106567382813	1326.369262695313	875.180908203125	69.52425384521484	1377.267578125	838.185546875	55.86614227294922	1437.694458007813	680.6856079101563	1084.812866210938	1291.702026367188	705.7882080078125	211.7639617919922	1436.177978515625	662.5697021484375	214.868408203125	1400.732788085938	699.2545166015625	292.0145568847656	1449.244750976563	658.3137817382813	294.1552124023438	1413.84130859375	749.3790283203125	668.8161010742188	1443.687744140625	690.3385620117188	675.0037841796875	1400.88330078125	754.448974609375	779.408447265625	1448.681884765625	699.8232421875	784.5628662109375	1408.407348632813	795.0726318359375	468.5184936523438	1387.986694335938	
21	0.1333333333333333	711.0282592773438	105.6846084594727	1044.384887695313	738.0333251953125	116.5087585449219	1128.122314453125	861.87451171875	1073.259765625	1129.135375976563	798.3333129882813	970.380126953125	1049.197875976563	641.0909423828125	42.25522232055664	1087.361694335938	671.8656005859375	54.16761016845703	1040.992309570313	650.8343505859375	92.01456451416016	1085.259887695313	733.5427856445313	498.3490600585938	1031.935180664063	785.3587646484375	1140.53076171875	1081.813720703125	747.149658203125	564.9889526367188	1043.016967773438	746.5376586914063	531.3589477539063	1171.133056640625	863.6488037109375	56.31271743774414	1128.337646484375	874.1663208007813	69.3590087890625	1074.687622070313	839.4630126953125	54.01042556762695	1014.878601074219	683.0859375	1080.435424804688	1182.697021484375	689.871337890625	203.0056915283203	1034.413330078125	660.0139770507813	202.0415649414063	1076.22021484375	680.078369140625	282.7879333496094	1024.51025390625	650.465576171875	286.0875854492188	1068.740478515625	749.2547607421875	675.2498168945313	1033.237060546875	692.7943725585938	681.2225952148438	1079.633544921875	756.3004760742188	784.556884765625	1028.849609375	702.8648681640625	789.924072265625	1073.961791992188	790.751708984375	463.7181091308594	1087.192138671875	710.385009765625	107.1371078491211	1414.299194335938	733.2614135742188	123.525505065918	1330.584350585938	855.179931640625	1075.568359375	1363.318237304688	791.6158447265625	970.5911865234375	1428.960815429688	639.644775390625	43.10163879394531	1374.386474609375	662.7816772460938	60.08846664428711	1410.4140625	651.0381469726563	93.01128387451172	1373.338012695313	741.6953125	490.8902587890625	1438.326538085938	779.6306762695313	1142.88134765625	1388.708374023438	743.1865234375	555.2744750976563	1432.090087890625	742.5170288085938	533.5277099609375	1300.108276367188	861.689208984375	59.80483627319336	1326.37646484375	875.1694946289063	69.53270721435547	1377.279541015625	838.1766967773438	55.83197784423828	1437.668823242188	680.6159057617188	1084.807373046875	1291.691650390625	705.7825317382813	211.7641754150391	1436.173461914063	662.5661010742188	214.8565521240234	1400.72705078125	699.24853515625	292.0124816894531	1449.242553710938	658.3082275390625	294.1454467773438	1413.83203125	749.2379760742188	668.8171997070313	1443.345458984375	690.325439453125	674.9895629882813	1400.885986328125	754.4043579101563	779.404541015625	1448.687255859375	699.7688598632813	784.5501708984375	1408.401245117188	795.0637817382813	468.5131225585938	1387.982543945313	
22	0.14	711.031005859375	105.6797103881836	1044.370727539063	738.027587890625	116.5061569213867	1128.116577148438	861.7743530273438	1073.270874023438	1129.11474609375	798.2594604492188	970.3922119140625	1049.17578125	641.0934448242188	42.24519729614258	1087.359619140625	671.86376953125	54.16336441040039	1040.990234375	650.8251342773438	92.01004028320313	1085.258422851563	733.5541381835938	498.3340454101563	1031.919921875	785.287109375	1140.538452148438	1081.8154296875	747.1408081054688	564.9934692382813	1043.00732421875	746.5015869140625	531.352783203125	1171.142700195313	863.6548461914063	56.31489181518555	1128.3271484375	874.1685180664063	69.36802673339844	1074.6826171875	839.4470825195313	54.01235961914063	1014.877868652344	682.9908447265625	1080.440307617188	1182.694702148438	689.8742065429688	202.9866790771484	1034.42236328125	660.011474609375	202.0343780517578	1076.228149414063	680.0819702148438	282.7976989746094	1024.501708984375	650.4727172851563	286.0749206542969	1068.730590820313	749.2421875	675.2462768554688	1033.22802734375	692.7623901367188	681.2147216796875	1079.6201171875	756.2465209960938	784.5568237304688	1028.832153320313	702.8128662109375	789.9082641601563	1073.943481445313	790.7739868164063	463.7249755859375	1087.17626953125	710.37744140625	107.1319961547852	1414.30029296875	733.2574462890625	123.5022964477539	1330.594482421875	855.1011962890625	1075.583862304688	1363.32421875	791.5558471679688	970.5824584960938	1428.943359375	639.6470947265625	43.10018920898438	1374.387817382813	662.7860107421875	60.0794792175293	1410.417724609375	651.0364379882813	93.01027679443359	1373.346923828125	741.6824951171875	490.8804321289063	1438.336059570313	779.5723876953125	1142.89013671875	1388.695678710938	743.1718139648438	555.273193359375	1432.094970703125	742.5289306640625	533.518798828125	1300.118286132813	861.6910400390625	59.81872940063477	1326.370361328125	875.1738891601563	69.53231811523438	1377.267700195313	838.1766967773438	55.8350944519043	1437.674438476563	680.543212890625	1084.798095703125	1291.688720703125	705.7744750976563	211.7534790039063	1436.173217773438	662.566162109375	214.8561096191406	1400.724731445313	699.2398071289063	292.0055541992188	1449.241821289063	658.3003540039063	294.1419372558594	1413.820922851563	749.3132934570313	668.8062744140625	1443.671630859375	690.2916259765625	674.9774780273438	1400.872436523438	754.3485107421875	779.3948364257813	1448.6728515625	699.7279052734375	784.5415649414063	1408.3857421875	795.0645141601563	468.51025390625	1387.980834960938	
